<mxfile host="app.diagrams.net" modified="2020-12-18T15:23:17.881Z" agent="5.0 (Windows NT 10.0; WOW64) AppleWebKit/537.36 (KHTML, like Gecko) Chrome/87.0.4280.88 Safari/537.36" etag="tLvGZOCi_-XcxLOUiKsV" version="14.0.5" type="github">
  <diagram id="qWS7Y5obmn8nB7-EifRM" name="Página-1">
    <mxGraphModel dx="1038" dy="617" grid="1" gridSize="10" guides="1" tooltips="1" connect="1" arrows="1" fold="1" page="1" pageScale="1" pageWidth="827" pageHeight="1169" math="0" shadow="0">
      <root>
        <mxCell id="0" />
        <mxCell id="1" parent="0" />
        <mxCell id="sY9KeFDjOcJ1oh_mJKEF-2" value="" style="endArrow=classic;html=1;" edge="1" parent="1">
          <mxGeometry width="50" height="50" relative="1" as="geometry">
            <mxPoint x="420" y="80" as="sourcePoint" />
            <mxPoint x="420" y="109" as="targetPoint" />
          </mxGeometry>
        </mxCell>
        <mxCell id="sY9KeFDjOcJ1oh_mJKEF-5" value="" style="endArrow=classic;html=1;" edge="1" parent="1">
          <mxGeometry width="50" height="50" relative="1" as="geometry">
            <mxPoint x="420" y="200" as="sourcePoint" />
            <mxPoint x="420" y="229" as="targetPoint" />
          </mxGeometry>
        </mxCell>
        <mxCell id="sY9KeFDjOcJ1oh_mJKEF-6" value="&lt;font style=&quot;font-size: 18px&quot;&gt;número do &lt;br&gt;usuário &amp;lt;=&amp;nbsp;0(zero) &lt;br&gt;&lt;u&gt;e&lt;/u&gt; &amp;gt;= à quantidade de &lt;br&gt;nomes &lt;br&gt;cadrastados ?&lt;/font&gt;" style="strokeWidth=2;html=1;shape=mxgraph.flowchart.decision;whiteSpace=wrap;" vertex="1" parent="1">
          <mxGeometry x="291.75" y="749" width="239" height="200" as="geometry" />
        </mxCell>
        <mxCell id="sY9KeFDjOcJ1oh_mJKEF-7" value="" style="endArrow=classic;html=1;" edge="1" parent="1">
          <mxGeometry width="50" height="50" relative="1" as="geometry">
            <mxPoint x="410.75" y="720" as="sourcePoint" />
            <mxPoint x="410.75" y="749" as="targetPoint" />
          </mxGeometry>
        </mxCell>
        <mxCell id="sY9KeFDjOcJ1oh_mJKEF-14" value="&lt;font style=&quot;font-size: 18px&quot;&gt;Verdade&lt;/font&gt;" style="text;html=1;resizable=0;autosize=1;align=center;verticalAlign=middle;points=[];fillColor=none;strokeColor=none;rounded=0;" vertex="1" parent="1">
          <mxGeometry x="520" y="829" width="80" height="20" as="geometry" />
        </mxCell>
        <mxCell id="sY9KeFDjOcJ1oh_mJKEF-15" value="" style="endArrow=classic;html=1;edgeStyle=orthogonalEdgeStyle;" edge="1" parent="1">
          <mxGeometry width="50" height="50" relative="1" as="geometry">
            <mxPoint x="530.75" y="849" as="sourcePoint" />
            <mxPoint x="597.75" y="949" as="targetPoint" />
          </mxGeometry>
        </mxCell>
        <mxCell id="sY9KeFDjOcJ1oh_mJKEF-17" value="&lt;font style=&quot;font-size: 18px&quot;&gt;Impressão do número e do nome do usuário&lt;/font&gt;" style="strokeWidth=2;html=1;shape=mxgraph.flowchart.display;whiteSpace=wrap;" vertex="1" parent="1">
          <mxGeometry x="510" y="1130" width="160" height="110" as="geometry" />
        </mxCell>
        <mxCell id="sY9KeFDjOcJ1oh_mJKEF-19" value="&lt;font style=&quot;font-size: 18px&quot;&gt;Início&lt;/font&gt;" style="strokeWidth=2;html=1;shape=mxgraph.flowchart.start_1;whiteSpace=wrap;" vertex="1" parent="1">
          <mxGeometry x="373.5" y="20" width="100" height="60" as="geometry" />
        </mxCell>
        <mxCell id="sY9KeFDjOcJ1oh_mJKEF-23" value="&lt;font style=&quot;font-size: 18px&quot;&gt;Armazenando dados&lt;br&gt;no Array&lt;/font&gt;" style="strokeWidth=2;html=1;shape=mxgraph.flowchart.stored_data;whiteSpace=wrap;" vertex="1" parent="1">
          <mxGeometry x="319.63" y="230" width="197" height="80" as="geometry" />
        </mxCell>
        <mxCell id="sY9KeFDjOcJ1oh_mJKEF-26" value="" style="endArrow=classic;html=1;" edge="1" parent="1">
          <mxGeometry width="50" height="50" relative="1" as="geometry">
            <mxPoint x="411" y="600" as="sourcePoint" />
            <mxPoint x="411" y="629" as="targetPoint" />
          </mxGeometry>
        </mxCell>
        <mxCell id="sY9KeFDjOcJ1oh_mJKEF-28" value="&lt;font style=&quot;font-size: 18px&quot;&gt;Número de usuário&lt;br&gt;&amp;nbsp;# (- 1)?&lt;/font&gt;" style="strokeWidth=2;html=1;shape=mxgraph.flowchart.decision;whiteSpace=wrap;" vertex="1" parent="1">
          <mxGeometry x="497.5" y="949" width="205" height="141" as="geometry" />
        </mxCell>
        <mxCell id="sY9KeFDjOcJ1oh_mJKEF-29" value="" style="endArrow=classic;html=1;entryX=0.558;entryY=-0.025;entryDx=0;entryDy=0;entryPerimeter=0;" edge="1" parent="1" target="sY9KeFDjOcJ1oh_mJKEF-17">
          <mxGeometry width="50" height="50" relative="1" as="geometry">
            <mxPoint x="600" y="1090" as="sourcePoint" />
            <mxPoint x="650" y="1040" as="targetPoint" />
          </mxGeometry>
        </mxCell>
        <mxCell id="sY9KeFDjOcJ1oh_mJKEF-30" value="&lt;font style=&quot;font-size: 18px&quot;&gt;Verdade&lt;/font&gt;" style="text;html=1;resizable=0;autosize=1;align=center;verticalAlign=middle;points=[];fillColor=none;strokeColor=none;rounded=0;" vertex="1" parent="1">
          <mxGeometry x="600" y="1100" width="80" height="20" as="geometry" />
        </mxCell>
        <mxCell id="sY9KeFDjOcJ1oh_mJKEF-31" value="" style="endArrow=classic;html=1;edgeStyle=orthogonalEdgeStyle;entryX=0.5;entryY=0;entryDx=0;entryDy=0;entryPerimeter=0;" edge="1" parent="1">
          <mxGeometry width="50" height="50" relative="1" as="geometry">
            <mxPoint x="497.5" y="1020" as="sourcePoint" />
            <mxPoint x="443.5" y="1040" as="targetPoint" />
            <Array as="points">
              <mxPoint x="444" y="1020" />
            </Array>
          </mxGeometry>
        </mxCell>
        <mxCell id="sY9KeFDjOcJ1oh_mJKEF-32" value="&lt;font style=&quot;font-size: 18px&quot;&gt;Falso&lt;/font&gt;" style="text;html=1;resizable=0;autosize=1;align=center;verticalAlign=middle;points=[];fillColor=none;strokeColor=none;rounded=0;" vertex="1" parent="1">
          <mxGeometry x="437.5" y="1000" width="60" height="20" as="geometry" />
        </mxCell>
        <mxCell id="sY9KeFDjOcJ1oh_mJKEF-34" value="" style="endArrow=classic;html=1;edgeStyle=orthogonalEdgeStyle;" edge="1" parent="1">
          <mxGeometry width="50" height="50" relative="1" as="geometry">
            <mxPoint x="291.75" y="849" as="sourcePoint" />
            <mxPoint x="240" y="970" as="targetPoint" />
          </mxGeometry>
        </mxCell>
        <mxCell id="sY9KeFDjOcJ1oh_mJKEF-36" value="&lt;span style=&quot;font-size: 18px&quot;&gt;Fim do programa&lt;/span&gt;" style="strokeWidth=2;html=1;shape=mxgraph.flowchart.terminator;whiteSpace=wrap;" vertex="1" parent="1">
          <mxGeometry x="390" y="1040" width="117.5" height="80" as="geometry" />
        </mxCell>
        <mxCell id="sY9KeFDjOcJ1oh_mJKEF-37" value="" style="endArrow=classic;html=1;edgeStyle=orthogonalEdgeStyle;entryX=1;entryY=0.5;entryDx=0;entryDy=0;entryPerimeter=0;" edge="1" parent="1" target="sY9KeFDjOcJ1oh_mJKEF-41">
          <mxGeometry width="50" height="50" relative="1" as="geometry">
            <mxPoint x="670" y="1180" as="sourcePoint" />
            <mxPoint x="550" y="675" as="targetPoint" />
            <Array as="points">
              <mxPoint x="730" y="1180" />
              <mxPoint x="730" y="675" />
            </Array>
          </mxGeometry>
        </mxCell>
        <mxCell id="sY9KeFDjOcJ1oh_mJKEF-38" value="&lt;span style=&quot;font-size: 18px&quot;&gt;Impressão&amp;nbsp;&lt;/span&gt;&lt;br style=&quot;font-size: 18px&quot;&gt;&lt;span style=&quot;font-size: 18px&quot;&gt;&quot;Número de usuário&amp;nbsp;&lt;/span&gt;&lt;br style=&quot;font-size: 18px&quot;&gt;&lt;span style=&quot;font-size: 18px&quot;&gt;inválido&quot;&lt;/span&gt;" style="strokeWidth=2;html=1;shape=mxgraph.flowchart.display;whiteSpace=wrap;" vertex="1" parent="1">
          <mxGeometry x="160" y="970" width="170" height="110" as="geometry" />
        </mxCell>
        <mxCell id="sY9KeFDjOcJ1oh_mJKEF-39" value="" style="endArrow=classic;html=1;edgeStyle=orthogonalEdgeStyle;" edge="1" parent="1">
          <mxGeometry width="50" height="50" relative="1" as="geometry">
            <mxPoint x="160" y="1020" as="sourcePoint" />
            <mxPoint x="310" y="680" as="targetPoint" />
            <Array as="points">
              <mxPoint x="130" y="1020" />
              <mxPoint x="130" y="680" />
            </Array>
          </mxGeometry>
        </mxCell>
        <mxCell id="sY9KeFDjOcJ1oh_mJKEF-40" value="&lt;font style=&quot;font-size: 18px&quot;&gt;Falso&lt;/font&gt;" style="text;html=1;resizable=0;autosize=1;align=center;verticalAlign=middle;points=[];fillColor=none;strokeColor=none;rounded=0;" vertex="1" parent="1">
          <mxGeometry x="240" y="829" width="60" height="20" as="geometry" />
        </mxCell>
        <mxCell id="sY9KeFDjOcJ1oh_mJKEF-41" value="&lt;span style=&quot;font-size: 18px&quot;&gt;Pesquisa&lt;/span&gt;&lt;br style=&quot;font-size: 18px&quot;&gt;&lt;span style=&quot;font-size: 18px&quot;&gt;Informando o número do usuário&lt;/span&gt;" style="strokeWidth=2;html=1;shape=mxgraph.flowchart.loop_limit;whiteSpace=wrap;" vertex="1" parent="1">
          <mxGeometry x="310" y="630" width="210" height="90" as="geometry" />
        </mxCell>
        <mxCell id="sY9KeFDjOcJ1oh_mJKEF-42" value="&lt;span style=&quot;font-size: 18px&quot;&gt;Cadastro de nome e sobrenome gerando número do usuário&lt;/span&gt;" style="strokeWidth=2;html=1;shape=mxgraph.flowchart.loop_limit;whiteSpace=wrap;" vertex="1" parent="1">
          <mxGeometry x="318.75" y="110" width="198.75" height="90" as="geometry" />
        </mxCell>
        <mxCell id="sY9KeFDjOcJ1oh_mJKEF-46" value="&lt;font style=&quot;font-size: 18px&quot;&gt;Fim do cadastramento&lt;/font&gt;" style="strokeWidth=2;html=1;shape=mxgraph.flowchart.terminator;whiteSpace=wrap;" vertex="1" parent="1">
          <mxGeometry x="317.19000000000005" y="520" width="182.81" height="80" as="geometry" />
        </mxCell>
        <mxCell id="sY9KeFDjOcJ1oh_mJKEF-47" value="" style="endArrow=classic;html=1;" edge="1" parent="1">
          <mxGeometry width="50" height="50" relative="1" as="geometry">
            <mxPoint x="417.63" y="310" as="sourcePoint" />
            <mxPoint x="417.63" y="339" as="targetPoint" />
          </mxGeometry>
        </mxCell>
        <mxCell id="sY9KeFDjOcJ1oh_mJKEF-51" value="&lt;font style=&quot;font-size: 18px&quot;&gt;Número de usuário &amp;gt;&amp;nbsp;&lt;br&gt;limite establelecido ?&lt;/font&gt;" style="strokeWidth=2;html=1;shape=mxgraph.flowchart.decision;whiteSpace=wrap;" vertex="1" parent="1">
          <mxGeometry x="306.09" y="340" width="224.07" height="130" as="geometry" />
        </mxCell>
        <mxCell id="sY9KeFDjOcJ1oh_mJKEF-52" value="" style="endArrow=classic;html=1;exitX=0.5;exitY=1;exitDx=0;exitDy=0;exitPerimeter=0;" edge="1" parent="1" source="sY9KeFDjOcJ1oh_mJKEF-51">
          <mxGeometry width="50" height="50" relative="1" as="geometry">
            <mxPoint x="418" y="500" as="sourcePoint" />
            <mxPoint x="417.6200000000001" y="520" as="targetPoint" />
          </mxGeometry>
        </mxCell>
        <mxCell id="sY9KeFDjOcJ1oh_mJKEF-53" value="" style="endArrow=classic;html=1;exitX=0.5;exitY=1;exitDx=0;exitDy=0;exitPerimeter=0;edgeStyle=orthogonalEdgeStyle;entryX=1.007;entryY=0.8;entryDx=0;entryDy=0;entryPerimeter=0;" edge="1" parent="1" target="sY9KeFDjOcJ1oh_mJKEF-42">
          <mxGeometry width="50" height="50" relative="1" as="geometry">
            <mxPoint x="530.755" y="404.5" as="sourcePoint" />
            <mxPoint x="570" y="180" as="targetPoint" />
            <Array as="points">
              <mxPoint x="570" y="405" />
              <mxPoint x="570" y="182" />
            </Array>
          </mxGeometry>
        </mxCell>
        <mxCell id="sY9KeFDjOcJ1oh_mJKEF-54" value="&lt;font style=&quot;font-size: 18px&quot;&gt;Falso&lt;/font&gt;" style="text;html=1;resizable=0;autosize=1;align=center;verticalAlign=middle;points=[];fillColor=none;strokeColor=none;rounded=0;" vertex="1" parent="1">
          <mxGeometry x="507.5" y="370" width="60" height="20" as="geometry" />
        </mxCell>
        <mxCell id="sY9KeFDjOcJ1oh_mJKEF-55" value="&lt;font style=&quot;font-size: 18px&quot;&gt;Verdade&lt;/font&gt;" style="text;html=1;resizable=0;autosize=1;align=center;verticalAlign=middle;points=[];fillColor=none;strokeColor=none;rounded=0;" vertex="1" parent="1">
          <mxGeometry x="417.5" y="480" width="80" height="20" as="geometry" />
        </mxCell>
      </root>
    </mxGraphModel>
  </diagram>
</mxfile>
